<?xml version="1.0" encoding="UTF-8"?>
<svg id="Layer_1" data-name="Layer 1" xmlns="http://www.w3.org/2000/svg" viewBox="0 0 144.97 114.71">
  <defs>
    <style>
      .cls-1 {
        fill: #0084d1;
        stroke-width: 0px;
      }
    </style>
  </defs>
  <path class="cls-1" d="M144.57,110.05L98.37,28.29c-.55-.98-1.59-1.59-2.72-1.59h-11.75c-2.37,0-3.87,2.54-2.74,4.62l44.57,81.76c.55,1,1.6,1.63,2.74,1.63h13.37c2.39,0,3.89-2.58,2.72-4.66Z"/>
  <path class="cls-1" d="M82.96,59.24c-.55-.98-1.59-1.59-2.72-1.59h-15.28c-1.16,0-2.23.65-2.77,1.68l-8.03,15.42c-1.08,2.08.43,4.56,2.77,4.56h15.73c1.13,0,2.18.61,2.73,1.6l17.67,31.71c.55.99,1.59,1.6,2.73,1.6h12.87c2.39,0,3.89-2.58,2.72-4.66l-28.41-50.33Z"/>
  <path class="cls-1" d="M61.83,91.61h-14.64c-1.14,0-2.2.63-2.74,1.63l-9.08,16.69c-1.13,2.08.37,4.61,2.74,4.61h14.98c1.16,0,2.23-.64,2.76-1.67l8.74-16.69c1.09-2.08-.42-4.57-2.77-4.57Z"/>
  <path class="cls-1" d="M76.05,0h-15.97c-1.16,0-2.22.64-2.76,1.67L.36,109.9c-1.09,2.08.41,4.58,2.76,4.58h15.15c1.15,0,2.21-.64,2.75-1.65L78.8,4.59c1.11-2.08-.4-4.59-2.75-4.59Z"/>
</svg>